<svg xmlns="http://www.w3.org/2000/svg" viewBox="0 0 1000 1000" width="1000" height="1000">
  <title>Japan doodle silhouette (Hokkaido / Honshu / Shikoku / Kyushu)</title>
  <path d="M 759.30 76.75 C 779.65 78.38, 825.40 107.82, 849.04 122.23 C 872.67 136.65, 899.03 148.98, 901.13 163.25 C 903.22 177.52, 877.34 196.29, 861.63 207.85 C 845.91 219.41, 827.20 225.75, 806.85 232.61 C 786.50 239.47, 756.60 237.60, 739.53 249.01 C 722.45 260.42, 712.51 300.13, 704.40 301.08 C 696.29 302.03, 688.45 269.13, 690.85 254.73 C 693.26 240.32, 717.78 229.95, 718.83 214.65 C 719.89 199.35, 695.84 179.97, 697.19 162.94 C 698.55 145.92, 716.59 126.85, 726.94 112.49 C 737.29 98.12, 738.95 75.13, 759.30 76.75 Z" fill="#F4F1E7" stroke="#1B1A17" stroke-width="9" stroke-linejoin="round" stroke-linecap="round"/>
  <path d="M 631.12 323.12 C 640.90 318.36, 674.39 310.78, 687.38 319.25 C 700.37 327.72, 706.78 355.65, 709.08 373.94 C 711.39 392.22, 699.97 410.03, 701.22 428.95 C 702.46 447.87, 714.99 470.70, 716.55 487.48 C 718.11 504.26, 717.80 516.22, 710.55 529.64 C 703.30 543.07, 685.32 555.91, 673.07 568.02 C 660.81 580.12, 650.43 590.63, 637.03 602.29 C 623.62 613.94, 606.18 623.19, 592.65 637.95 C 579.11 652.70, 569.66 689.44, 555.81 690.83 C 541.96 692.23, 527.25 654.46, 509.53 646.34 C 491.81 638.22, 481.12 639.45, 449.47 642.10 C 417.83 644.75, 359.96 654.29, 319.67 662.25 C 279.38 670.21, 233.22 690.47, 207.74 689.89 C 182.25 689.30, 159.46 669.31, 166.75 658.74 C 174.03 648.18, 216.96 636.36, 251.44 626.48 C 285.92 616.60, 340.47 609.16, 373.63 599.45 C 406.79 589.73, 427.61 578.65, 450.38 568.19 C 473.16 557.72, 492.37 548.22, 510.28 536.67 C 528.18 525.13, 549.10 513.53, 557.81 498.92 C 566.51 484.31, 555.57 465.71, 562.51 448.99 C 569.45 432.27, 588.43 415.46, 599.46 398.61 C 610.49 381.75, 623.42 360.43, 628.70 347.85 C 633.97 335.27, 621.34 327.89, 631.12 323.12 Z" fill="#F4F1E7" stroke="#1B1A17" stroke-width="9" stroke-linejoin="round" stroke-linecap="round"/>
  <path d="M 338.58 704.41 C 351.25 699.25, 378.11 688.81, 400.35 687.69 C 422.59 686.58, 457.31 691.98, 472.02 697.70 C 486.73 703.43, 491.68 714.16, 488.60 722.03 C 485.53 729.90, 470.61 739.36, 453.58 744.92 C 436.55 750.49, 405.86 755.86, 386.39 755.42 C 366.93 754.98, 347.12 748.40, 336.79 742.28 C 326.45 736.16, 324.08 725.00, 324.38 718.69 C 324.68 712.38, 325.92 709.58, 338.58 704.41 Z" fill="#F4F1E7" stroke="#1B1A17" stroke-width="9" stroke-linejoin="round" stroke-linecap="round"/>
  <path d="M 248.26 678.32 C 261.76 679.37, 281.87 687.32, 291.22 698.45 C 300.58 709.58, 305.67 729.79, 304.38 745.09 C 303.10 760.38, 283.65 774.79, 283.53 790.23 C 283.42 805.66, 305.43 822.85, 303.71 837.69 C 301.99 852.53, 285.01 875.05, 273.21 879.26 C 261.41 883.47, 241.70 874.33, 232.91 862.94 C 224.13 851.56, 226.02 824.43, 220.53 810.95 C 215.05 797.47, 204.98 794.42, 200.01 782.08 C 195.04 769.73, 189.00 751.87, 190.71 736.88 C 192.42 721.90, 200.68 701.91, 210.27 692.15 C 219.86 682.39, 234.77 677.27, 248.26 678.32 Z" fill="#F4F1E7" stroke="#1B1A17" stroke-width="9" stroke-linejoin="round" stroke-linecap="round"/>
</svg>
